{
    "asset": {
        "version": "2.0",
        "generator": "Open Asset Import Library (assimp v5.2.cf7d3637)"
    },
    "extensionsUsed": [
        "KHR_materials_volume",
        "KHR_materials_ior",
        "FB_ngon_encoding"
    ],
    "accessors": [
        {
            "bufferView": 0,
            "byteOffset": 0,
            "componentType": 5126,
            "count": 237168,
            "type": "VEC3",
            "max": [
                1.497441053390503,
                2.464380979537964,
                6.303806781768799
            ],
            "min": [
                0.6815119981765747,
                -1.2271920442581177,
                5.228155136108398
            ]
        },
        {
            "bufferView": 1,
            "byteOffset": 0,
            "componentType": 5125,
            "count": 237168,
            "type": "SCALAR",
            "max": [
                237167
            ],
            "min": [
                0
            ]
        },
        {
            "bufferView": 2,
            "byteOffset": 0,
            "componentType": 5126,
            "count": 237168,
            "type": "VEC3",
            "max": [
                -0.6866520047187805,
                2.464380979537964,
                6.303806781768799
            ],
            "min": [
                -1.4958200454711915,
                -1.227187991142273,
                5.2281341552734379
            ]
        },
        {
            "bufferView": 3,
            "byteOffset": 0,
            "componentType": 5125,
            "count": 237168,
            "type": "SCALAR",
            "max": [
                237167
            ],
            "min": [
                0
            ]
        },
        {
            "bufferView": 4,
            "byteOffset": 0,
            "componentType": 5126,
            "count": 237168,
            "type": "VEC3",
            "max": [
                -0.6991900205612183,
                2.3125948905944826,
                4.434478759765625
            ],
            "min": [
                -1.3991899490356446,
                -1.3350579738616944,
                3.102031946182251
            ]
        },
        {
            "bufferView": 5,
            "byteOffset": 0,
            "componentType": 5125,
            "count": 237168,
            "type": "SCALAR",
            "max": [
                237167
            ],
            "min": [
                0
            ]
        },
        {
            "bufferView": 6,
            "byteOffset": 0,
            "componentType": 5126,
            "count": 237168,
            "type": "VEC3",
            "max": [
                1.4208099842071534,
                2.3125948905944826,
                4.434478759765625
            ],
            "min": [
                0.7208099961280823,
                -1.3350579738616944,
                3.102031946182251
            ]
        },
        {
            "bufferView": 7,
            "byteOffset": 0,
            "componentType": 5125,
            "count": 237168,
            "type": "SCALAR",
            "max": [
                237167
            ],
            "min": [
                0
            ]
        },
        {
            "bufferView": 8,
            "byteOffset": 0,
            "componentType": 5126,
            "count": 237168,
            "type": "VEC3",
            "max": [
                1.241989016532898,
                1.708184003829956,
                2.7584800720214845
            ],
            "min": [
                0.4260599911212921,
                -1.8465709686279297,
                1.1726830005645753
            ]
        },
        {
            "bufferView": 9,
            "byteOffset": 0,
            "componentType": 5125,
            "count": 237168,
            "type": "SCALAR",
            "max": [
                237167
            ],
            "min": [
                0
            ]
        },
        {
            "bufferView": 10,
            "byteOffset": 0,
            "componentType": 5126,
            "count": 237168,
            "type": "VEC3",
            "max": [
                -0.44116199016571047,
                1.7067289352416993,
                2.753278970718384
            ],
            "min": [
                -1.2503299713134766,
                -1.848031997680664,
                1.167688012123108
            ]
        },
        {
            "bufferView": 11,
            "byteOffset": 0,
            "componentType": 5125,
            "count": 237168,
            "type": "SCALAR",
            "max": [
                237167
            ],
            "min": [
                0
            ]
        },
        {
            "bufferView": 12,
            "byteOffset": 0,
            "componentType": 5126,
            "count": 151326,
            "type": "VEC3",
            "max": [
                3.041335105895996,
                2.352778911590576,
                7.003302097320557
            ],
            "min": [
                -2.9079809188842775,
                -7.074361801147461,
                -0.00014400000509340316
            ]
        },
        {
            "bufferView": 13,
            "byteOffset": 0,
            "componentType": 5126,
            "count": 151326,
            "type": "VEC3",
            "max": [
                0.9999884963035584,
                0.9999918937683106,
                0.9999967813491821
            ],
            "min": [
                -0.9999940991401672,
                -0.9999251365661621,
                -0.9999993443489075
            ]
        },
        {
            "bufferView": 14,
            "byteOffset": 0,
            "componentType": 5126,
            "count": 151326,
            "type": "VEC2",
            "max": [
                34.37160873413086,
                3.553989887237549
            ],
            "min": [
                -3.662814140319824,
                -31.619182586669923
            ]
        },
        {
            "bufferView": 15,
            "byteOffset": 0,
            "componentType": 5125,
            "count": 151326,
            "type": "SCALAR",
            "max": [
                151325
            ],
            "min": [
                0
            ]
        }
    ],
    "buffers": [
        {
            "byteLength": 28215864,
            "uri": "result.bin"
        }
    ],
    "bufferViews": [
        {
            "buffer": 0,
            "byteOffset": 0,
            "byteLength": 2846016,
            "target": 34962
        },
        {
            "buffer": 0,
            "byteOffset": 2846016,
            "byteLength": 948672,
            "target": 34963
        },
        {
            "buffer": 0,
            "byteOffset": 3794688,
            "byteLength": 2846016,
            "target": 34962
        },
        {
            "buffer": 0,
            "byteOffset": 6640704,
            "byteLength": 948672,
            "target": 34963
        },
        {
            "buffer": 0,
            "byteOffset": 7589376,
            "byteLength": 2846016,
            "target": 34962
        },
        {
            "buffer": 0,
            "byteOffset": 10435392,
            "byteLength": 948672,
            "target": 34963
        },
        {
            "buffer": 0,
            "byteOffset": 11384064,
            "byteLength": 2846016,
            "target": 34962
        },
        {
            "buffer": 0,
            "byteOffset": 14230080,
            "byteLength": 948672,
            "target": 34963
        },
        {
            "buffer": 0,
            "byteOffset": 15178752,
            "byteLength": 2846016,
            "target": 34962
        },
        {
            "buffer": 0,
            "byteOffset": 18024768,
            "byteLength": 948672,
            "target": 34963
        },
        {
            "buffer": 0,
            "byteOffset": 18973440,
            "byteLength": 2846016,
            "target": 34962
        },
        {
            "buffer": 0,
            "byteOffset": 21819456,
            "byteLength": 948672,
            "target": 34963
        },
        {
            "buffer": 0,
            "byteOffset": 22768128,
            "byteLength": 1815912,
            "target": 34962
        },
        {
            "buffer": 0,
            "byteOffset": 24584040,
            "byteLength": 1815912,
            "target": 34962
        },
        {
            "buffer": 0,
            "byteOffset": 26399952,
            "byteLength": 1210608,
            "target": 34962
        },
        {
            "buffer": 0,
            "byteOffset": 27610560,
            "byteLength": 605304,
            "target": 34963
        }
    ],
    "materials": [
        {
            "name": "DefaultMaterial",
            "pbrMetallicRoughness": {
                "baseColorFactor": [
                    0.6000000238418579,
                    0.6000000238418579,
                    0.6000000238418579,
                    1.0
                ],
                "metallicFactor": 0.0
            },
            "extensions": {
                "KHR_materials_ior": {
                    "ior": 1.0
                }
            }
        },
        {
            "name": "Stainless_Steel_-_Satin",
            "pbrMetallicRoughness": {
                "baseColorFactor": [
                    0.6000000238418579,
                    0.6000000238418579,
                    0.6000000238418579,
                    1.0
                ],
                "metallicFactor": 0.0
            },
            "extensions": {
                "KHR_materials_ior": {
                    "ior": 1.0
                }
            }
        }
    ],
    "meshes": [
        {
            "name": "MeshBody1",
            "primitives": [
                {
                    "mode": 4,
                    "material": 0,
                    "indices": 1,
                    "attributes": {
                        "POSITION": 0
                    }
                }
            ]
        },
        {
            "name": "MeshBody1:1",
            "primitives": [
                {
                    "mode": 4,
                    "material": 0,
                    "indices": 3,
                    "attributes": {
                        "POSITION": 2
                    }
                }
            ]
        },
        {
            "name": "MeshBody1:2",
            "primitives": [
                {
                    "mode": 4,
                    "material": 0,
                    "indices": 5,
                    "attributes": {
                        "POSITION": 4
                    }
                }
            ]
        },
        {
            "name": "MeshBody1:3",
            "primitives": [
                {
                    "mode": 4,
                    "material": 0,
                    "indices": 7,
                    "attributes": {
                        "POSITION": 6
                    }
                }
            ]
        },
        {
            "name": "MeshBody1:4",
            "primitives": [
                {
                    "mode": 4,
                    "material": 0,
                    "indices": 9,
                    "attributes": {
                        "POSITION": 8
                    }
                }
            ]
        },
        {
            "name": "MeshBody1:5",
            "primitives": [
                {
                    "mode": 4,
                    "material": 0,
                    "indices": 11,
                    "attributes": {
                        "POSITION": 10
                    }
                }
            ]
        },
        {
            "name": "Body2",
            "primitives": [
                {
                    "mode": 4,
                    "material": 1,
                    "indices": 15,
                    "attributes": {
                        "POSITION": 12,
                        "NORMAL": 13,
                        "TEXCOORD_0": 14
                    }
                }
            ]
        }
    ],
    "nodes": [
        {
            "name": "791 GTI - Post Design Review v12.obj",
            "children": [
                1,
                2,
                3,
                4,
                5,
                6,
                7
            ]
        },
        {
            "name": "MeshBody1",
            "mesh": 0
        },
        {
            "name": "MeshBody1:1",
            "mesh": 1
        },
        {
            "name": "MeshBody1:2",
            "mesh": 2
        },
        {
            "name": "MeshBody1:3",
            "mesh": 3
        },
        {
            "name": "MeshBody1:4",
            "mesh": 4
        },
        {
            "name": "MeshBody1:5",
            "mesh": 5
        },
        {
            "name": "Body2",
            "mesh": 6
        }
    ],
    "scenes": [
        {
            "nodes": [
                0
            ]
        }
    ],
    "scene": 0
}