{
  "asset": {
    "generator": "glTF-Transform v4.2.0",
    "version": "2.0"
  },
  "accessors": [
    {
      "type": "SCALAR",
      "componentType": 5123,
      "count": 5856,
      "normalized": false,
      "byteOffset": 0,
      "bufferView": 0
    },
    {
      "name": "TEXCOORD_0",
      "type": "VEC2",
      "componentType": 5126,
      "count": 2130,
      "normalized": false,
      "byteOffset": 0,
      "bufferView": 1
    },
    {
      "name": "NORMAL",
      "type": "VEC3",
      "componentType": 5120,
      "count": 2130,
      "normalized": true,
      "byteOffset": 0,
      "bufferView": 2
    },
    {
      "name": "POSITION",
      "type": "VEC3",
      "componentType": 5122,
      "count": 2130,
      "max": [
        31219,
        32767,
        32367
      ],
      "min": [
        -31219,
        -32767,
        -32367
      ],
      "normalized": true,
      "byteOffset": 0,
      "bufferView": 3
    }
  ],
  "bufferViews": [
    {
      "buffer": 1,
      "byteOffset": 0,
      "byteLength": 11712,
      "target": 34963,
      "extensions": {
        "EXT_meshopt_compression": {
          "buffer": 0,
          "byteOffset": 0,
          "byteLength": 5098,
          "mode": "TRIANGLES",
          "byteStride": 2,
          "count": 5856
        }
      }
    },
    {
      "buffer": 1,
      "byteOffset": 11712,
      "byteLength": 17040,
      "target": 34962,
      "byteStride": 8,
      "extensions": {
        "EXT_meshopt_compression": {
          "buffer": 0,
          "byteOffset": 5100,
          "byteLength": 15472,
          "mode": "ATTRIBUTES",
          "byteStride": 8,
          "count": 2130
        }
      }
    },
    {
      "buffer": 1,
      "byteOffset": 28752,
      "byteLength": 8520,
      "target": 34962,
      "byteStride": 4,
      "extensions": {
        "EXT_meshopt_compression": {
          "buffer": 0,
          "byteOffset": 20572,
          "byteLength": 4205,
          "mode": "ATTRIBUTES",
          "filter": "OCTAHEDRAL",
          "byteStride": 4,
          "count": 2130
        }
      }
    },
    {
      "buffer": 1,
      "byteOffset": 37272,
      "byteLength": 17040,
      "target": 34962,
      "byteStride": 8,
      "extensions": {
        "EXT_meshopt_compression": {
          "buffer": 0,
          "byteOffset": 24780,
          "byteLength": 11602,
          "mode": "ATTRIBUTES",
          "byteStride": 8,
          "count": 2130
        }
      }
    }
  ],
  "buffers": [
    {
      "uri": "Hand_Robot.bin",
      "byteLength": 36384
    },
    {
      "byteLength": 54312,
      "extensions": {
        "EXT_meshopt_compression": {
          "fallback": true
        }
      }
    }
  ],
  "meshes": [
    {
      "primitives": [
        {
          "attributes": {
            "TEXCOORD_0": 1,
            "NORMAL": 2,
            "POSITION": 3
          },
          "mode": 4,
          "indices": 0
        }
      ]
    }
  ],
  "nodes": [
    {
      "name": "Body1",
      "translation": [
        -20.763647079467773,
        -22.729961395263672,
        -23.11537504196167
      ],
      "scale": [
        31.41229248046875,
        31.41229248046875,
        31.41229248046875
      ],
      "mesh": 0
    }
  ],
  "scenes": [
    {
      "nodes": [
        0
      ]
    }
  ],
  "scene": 0,
  "extensionsUsed": [
    "EXT_meshopt_compression",
    "KHR_mesh_quantization"
  ],
  "extensionsRequired": [
    "EXT_meshopt_compression",
    "KHR_mesh_quantization"
  ]
}